<svg width="20" height="20" viewBox="0 0 20 20" fill="none" xmlns="http://www.w3.org/2000/svg">
<g id="Google">
<path id="Vector" d="M4.43571 12.0857L3.74286 14.6857L1.2 14.7428C0.428571 13.3286 0 11.7143 0 9.99999C0 8.34285 0.4 6.77856 1.12143 5.39999L3.38571 5.81428L4.37857 8.06428C4.17143 8.67142 4.05714 9.32142 4.05714 9.99285C4.05714 10.7357 4.18571 11.4357 4.43571 12.0857Z" fill="#FBBB00"/>
<path id="Vector_2" d="M19.8286 8.12857C19.9429 8.73571 20.0001 9.36429 20.0001 10C20.0001 10.7143 19.9215 11.4143 19.7786 12.0857C19.2929 14.3786 18.0215 16.3786 16.2572 17.7929L13.4072 17.65L13.0001 15.1286C14.1715 14.4429 15.0858 13.3714 15.5644 12.0857H10.2144V8.12857H15.6429H19.8286Z" fill="#518EF8"/>
<path id="Vector_3" d="M16.2572 17.8C14.55 19.1786 12.3714 20 10 20C6.19287 20 2.87859 17.8714 1.19287 14.7357L4.43573 12.0857C5.27858 14.3429 7.45716 15.9429 10 15.9429C11.0929 15.9429 12.1214 15.65 13 15.1286L16.2572 17.8Z" fill="#28B446"/>
<path id="Vector_4" d="M16.3859 2.3L13.143 4.95714C12.2287 4.38572 11.1573 4.05714 10.0002 4.05714C7.39301 4.05714 5.17872 5.73571 4.37872 8.07143L1.12158 5.4C2.78587 2.19286 6.13587 0 10.0002 0C12.4287 0 14.6502 0.864286 16.3859 2.3Z" fill="#F14336"/>
</g>
</svg>
