<svg width="20" height="20" viewBox="0 0 20 20" fill="none" xmlns="http://www.w3.org/2000/svg">
<g id="Iconly/Light/Hide">
<g id="Hide">
<path id="Stroke 1" d="M8.13411 11.9723C7.65495 11.494 7.36328 10.844 7.36328 10.1148C7.36328 8.654 8.53995 7.4765 9.99995 7.4765C10.7224 7.4765 11.3874 7.769 11.8583 8.24733" stroke="#888AA0" stroke-width="1.5" stroke-linecap="round" stroke-linejoin="round"/>
<path id="Stroke 3" d="M12.5873 10.5824C12.394 11.6574 11.5473 12.5057 10.4731 12.7007" stroke="#888AA0" stroke-width="1.5" stroke-linecap="round" stroke-linejoin="round"/>
<path id="Stroke 5" d="M5.54567 14.5602C4.22317 13.5219 3.10317 12.0052 2.2915 10.1144C3.1115 8.21523 4.239 6.69023 5.56984 5.64356C6.89234 4.5969 8.41817 4.02856 9.99984 4.02856C11.5907 4.02856 13.1157 4.60523 14.4465 5.6594" stroke="#888AA0" stroke-width="1.5" stroke-linecap="round" stroke-linejoin="round"/>
<path id="Stroke 7" d="M16.2063 7.49231C16.7796 8.25398 17.2838 9.13314 17.708 10.114C16.0688 13.9115 13.1721 16.199 9.99965 16.199C9.28048 16.199 8.57132 16.0823 7.88965 15.8548" stroke="#888AA0" stroke-width="1.5" stroke-linecap="round" stroke-linejoin="round"/>
<path id="Stroke 9" d="M16.5727 3.54132L3.42773 16.6863" stroke="#888AA0" stroke-width="1.5" stroke-linecap="round" stroke-linejoin="round"/>
</g>
</g>
</svg>
