<svg width="20" height="20" viewBox="0 0 20 20" fill="none" xmlns="http://www.w3.org/2000/svg">
<g id="Iconly/Light/Home">
<g id="Home">
<path id="Home_2" d="M7.63118 17.3095V14.7539C7.63116 14.1039 8.16109 13.5757 8.81767 13.5713H11.2227C11.8824 13.5713 12.4173 14.1008 12.4173 14.7539V14.7539V17.3175C12.4171 17.8694 12.862 18.3204 13.4194 18.3334H15.0227C16.6211 18.3334 17.9168 17.0506 17.9168 15.4682V15.4682V8.19822C17.9083 7.57571 17.6131 6.99114 17.1151 6.61088L11.6316 2.23777C10.6709 1.47633 9.30533 1.47633 8.34468 2.23777L2.88518 6.61882C2.38538 6.99754 2.08965 7.58308 2.0835 8.20615V15.4682C2.0835 17.0506 3.37923 18.3334 4.97759 18.3334H6.58096C7.15212 18.3334 7.61514 17.875 7.61514 17.3095V17.3095" stroke="#888AA0" stroke-width="1.5" stroke-linecap="round" stroke-linejoin="round"/>
</g>
</g>
</svg>
