<svg width="18" height="22" viewBox="0 0 18 22" fill="none" xmlns="http://www.w3.org/2000/svg">
<g id="vuesax/linear/mobile">
<g id="vuesax/linear/mobile_2">
<g id="mobile">
<path id="Vector" d="M1 16L1 6C1 2 2 0.999999 6 0.999999L12 1C16 1 17 2 17 6L17 16C17 20 16 21 12 21L6 21C2 21 1 20 1 16Z" stroke="#888AA0" stroke-width="1.5" stroke-linecap="round" stroke-linejoin="round"/>
<path id="Vector_2" d="M7 17.5L11 17.5" stroke="#888AA0" stroke-width="1.5" stroke-linecap="round" stroke-linejoin="round"/>
<path id="Vector_3" d="M8.9998 3.9C8.14376 3.9 7.4498 4.59396 7.4498 5.45C7.4498 6.30604 8.14376 7 8.9998 7C9.85585 7 10.5498 6.30604 10.5498 5.45C10.5498 4.59396 9.85585 3.9 8.9998 3.9Z" stroke="#888AA0" stroke-width="1.5" stroke-linecap="round" stroke-linejoin="round"/>
</g>
</g>
</g>
</svg>
